<svg xmlns="http://www.w3.org/2000/svg" version="1.1" xmlns:xlink="http://www.w3.org/1999/xlink" viewBox="0 0 40 40">
    <symbol id="icon-x" viewBox="0 0 40 40">
        <path d="M30.1,4h5.4L23.7,17.6L37.6,36H26.7l-8.5-11.2L8.5,36H3.1l12.6-14.5L2.4,4h11.1l7.7,10.2L30.1,4z M28.2,32.8h3L11.9,7.1H8.7 L28.2,32.8z"></path>
    </symbol>
    <symbol id="icon-instagram" viewBox="0 0 40 40">
        <path d="M20,7c4.2,0,4.7,0,6.3,0.1c1.5,0.1,2.3,0.3,3,0.5C30,8,30.5,8.3,31.1,8.9c0.5,0.5,0.9,1.1,1.2,1.8c0.2,0.5,0.5,1.4,0.5,3 C33,15.3,33,15.8,33,20s0,4.7-0.1,6.3c-0.1,1.5-0.3,2.3-0.5,3c-0.3,0.7-0.6,1.2-1.2,1.8c-0.5,0.5-1.1,0.9-1.8,1.2 c-0.5,0.2-1.4,0.5-3,0.5C24.7,33,24.2,33,20,33s-4.7,0-6.3-0.1c-1.5-0.1-2.3-0.3-3-0.5C10,32,9.5,31.7,8.9,31.1 C8.4,30.6,8,30,7.7,29.3c-0.2-0.5-0.5-1.4-0.5-3C7,24.7,7,24.2,7,20s0-4.7,0.1-6.3c0.1-1.5,0.3-2.3,0.5-3C8,10,8.3,9.5,8.9,8.9 C9.4,8.4,10,8,10.7,7.7c0.5-0.2,1.4-0.5,3-0.5C15.3,7.1,15.8,7,20,7z M20,4.3c-4.3,0-4.8,0-6.5,0.1c-1.6,0-2.8,0.3-3.8,0.7 C8.7,5.5,7.8,6,6.9,6.9C6,7.8,5.5,8.7,5.1,9.7c-0.4,1-0.6,2.1-0.7,3.8c-0.1,1.7-0.1,2.2-0.1,6.5s0,4.8,0.1,6.5 c0,1.6,0.3,2.8,0.7,3.8c0.4,1,0.9,1.9,1.8,2.8c0.9,0.9,1.7,1.4,2.8,1.8c1,0.4,2.1,0.6,3.8,0.7c1.6,0.1,2.2,0.1,6.5,0.1 s4.8,0,6.5-0.1c1.6-0.1,2.9-0.3,3.8-0.7c1-0.4,1.9-0.9,2.8-1.8c0.9-0.9,1.4-1.7,1.8-2.8c0.4-1,0.6-2.1,0.7-3.8 c0.1-1.6,0.1-2.2,0.1-6.5s0-4.8-0.1-6.5c-0.1-1.6-0.3-2.9-0.7-3.8c-0.4-1-0.9-1.9-1.8-2.8c-0.9-0.9-1.7-1.4-2.8-1.8 c-1-0.4-2.1-0.6-3.8-0.7C24.8,4.3,24.3,4.3,20,4.3L20,4.3L20,4.3z"></path>
        <path d="M20,11.9c-4.5,0-8.1,3.7-8.1,8.1s3.7,8.1,8.1,8.1s8.1-3.7,8.1-8.1S24.5,11.9,20,11.9z M20,25.2c-2.9,0-5.2-2.3-5.2-5.2 s2.3-5.2,5.2-5.2s5.2,2.3,5.2,5.2S22.9,25.2,20,25.2z"></path>
        <path d="M30.6,11.6c0,1-0.8,1.9-1.9,1.9c-1,0-1.9-0.8-1.9-1.9s0.8-1.9,1.9-1.9C29.8,9.7,30.6,10.5,30.6,11.6z"></path>
    </symbol>
    <symbol id="icon-tiktok" viewBox="0 0 40 40">
        <path d="M36.1,11.7v5c-3.3,0-6.3-1-8.8-2.8v12.9c0,6.5-5.2,11.7-11.7,11.7c-2.4,0-4.6-0.7-6.5-2c0,0,0,0,0,0 c-3.1-2.1-5.2-5.7-5.2-9.7c0-6.5,5.2-11.7,11.7-11.7c0.5,0,1.1,0,1.6,0.1v1.4c0,0,0,0,0,0v5c-0.5-0.2-1.1-0.3-1.6-0.3 c-2.9,0-5.3,2.4-5.3,5.4c0,2.1,1.2,3.9,2.9,4.8c0.7,0.4,1.5,0.6,2.4,0.6c2.9,0,5.3-2.4,5.3-5.3V1.5h6.3v0.8c0,0.2,0.1,0.5,0.1,0.7 c0.4,2.5,1.9,4.7,4,6c0,0,0.1,0.1,0.1,0.1c0,0-0.1-0.1-0.1-0.1c1.4,0.9,3,1.3,4.7,1.3V11.7"></path>
    </symbol>
    <symbol id="icon-snapchat" viewBox="0 0 40 40">
        <path d="M18.5,4.8c-2.3,0.3-4,1.2-5.4,2.6c-2,2.1-2.5,3.9-2.2,8.4c0.1,0.8,0.1,1.4,0,1.4c-0.1,0.1-1.1,0-1.7-0.2 c-0.6-0.2-0.7-0.2-1.2-0.1c-0.4,0.1-0.6,0.2-0.9,0.5c-0.3,0.3-0.4,0.4-0.4,0.7c0,0.8,0.6,1.3,2.3,1.9c1.7,0.6,1.9,1.1,1.2,2.4 c-0.5,1.1-1.1,1.8-1.9,2.7c-1.2,1.2-2.4,2-3.9,2.3c-0.8,0.2-1.1,0.5-1,0.9c0,0.2,0.1,0.4,0.2,0.5c0.4,0.5,1.7,1.1,3.3,1.4 C7.6,30.4,8,30.5,8,30.5c0,0.1,0.1,0.4,0.2,0.8c0.3,1.1,0.5,1.3,1.7,1.1c1.8-0.3,2.9-0.2,3.8,0.2c0.2,0.1,0.9,0.5,1.6,1 c2,1.4,2.8,1.7,4.6,1.7s2.5-0.3,4.6-1.7c0.6-0.4,1.3-0.9,1.6-1c0.7-0.3,1.7-0.4,2.8-0.3c1.9,0.2,2,0.2,2.2,0 c0.1-0.1,0.3-0.4,0.3-0.6c0.3-1.3,0.3-1.3,0.8-1.3c0.2,0,0.8-0.1,1.3-0.3c1.5-0.4,2.3-0.8,2.5-1.4c0.3-0.7,0-1-1.1-1.3 c-2.4-0.6-4.3-2.3-5.7-5c-0.7-1.3-0.4-1.8,1.2-2.4c1.7-0.6,2.3-1.1,2.3-1.9c0-0.7-0.9-1.3-1.7-1.3c-0.2,0-0.6,0.1-0.9,0.2 c-0.6,0.2-1.4,0.3-1.5,0.2c0,0,0-0.7,0-1.6c0.1-1.6,0.1-3.6-0.1-4.5c-0.4-2.3-2.4-4.7-4.8-5.7c-1.2-0.5-2.2-0.7-3.7-0.7 C19.4,4.8,18.7,4.8,18.5,4.8L18.5,4.8z"></path>
    </symbol>
    <symbol id="icon-discord" viewBox="0 0 40 40">
        <path d="M33.2,8.3c-2.5-1.1-5.1-1.9-7.9-2.4c-0.3,0.6-0.7,1.4-1,2c-2.9-0.4-5.8-0.4-8.7,0c-0.3-0.6-0.7-1.4-1-2 c-2.8,0.5-5.4,1.3-7.9,2.4c-5,7.2-6.3,14.2-5.6,21.1c3.3,2.3,6.5,3.8,9.6,4.7c0.8-1,1.5-2.1,2.1-3.3c-1.1-0.4-2.2-0.9-3.2-1.5 c0.3-0.2,0.5-0.4,0.8-0.6c6.3,2.8,13,2.8,19.2,0c0.3,0.2,0.5,0.4,0.8,0.6c-1,0.6-2.1,1.1-3.2,1.5c0.6,1.1,1.3,2.2,2.1,3.3 c3.1-0.9,6.3-2.4,9.6-4.7C39.7,21.4,37.5,14.4,33.2,8.3z M13.7,25.1c-1.9,0-3.4-1.7-3.4-3.7s1.5-3.7,3.4-3.7c1.9,0,3.5,1.7,3.4,3.7 C17.1,23.4,15.6,25.1,13.7,25.1z M26.3,25.1c-1.9,0-3.4-1.7-3.4-3.7s1.5-3.7,3.4-3.7c1.9,0,3.5,1.7,3.4,3.7 C29.7,23.4,28.2,25.1,26.3,25.1z"></path>
    </symbol>
    <symbol id="icon-anilist" viewBox="0 0 40 40">
        <path d="M39.8,32.4c0,0.8-0.7,1.3-1.5,1.3c-1.4,0-2.7,0-4.1,0c-1.4,0-2.9,0-4.3,0c-0.3,0-0.5-0.1-0.6-0.4 c-2.3-6.6-4.7-13.2-7-19.9c-0.4-1-0.7-2-1.1-3c-0.5-1.2-0.6-2.3-0.5-3.6c0-0.9,0.6-1.5,1.5-1.5c1.4,0,3.8,0,5.2,0 c0.8,0,1.4,0.6,1.5,1.4c0,0.9,0,1.9,0,2.8c0,2.3,0,4.6,0,6.9l0,9.6c0,0.1,0,0.2,0.1,0.3c0.1,0.1,0.2,0.1,0.4,0.1c1.2,0,1.4,0,2.6,0 c2,0,3.9,0,5.9,0c0.4,0,0.8,0,1.1,0.2c0.5,0.2,0.9,0.6,0.9,1.2C39.8,29.3,39.9,30.9,39.8,32.4z M27.2,33.3c0,0.1,0.1,0.2,0.1,0.5 c-0.5,0-1,0-1.5,0c-1.9,0-3.8,0-5.8,0c-0.4,0-0.6-0.1-0.7-0.5c-0.4-1.3-0.8-2.5-1.2-3.8c-0.2-0.7-0.3-0.7-1-0.7c-2.4,0-4.8,0-7.2,0 c-0.4,0-0.6,0.1-0.7,0.5C9,30.7,8.5,32,8,33.3c-0.1,0.3-0.3,0.5-0.7,0.5c-2.3,0-4.5,0-6.8,0c-0.5,0-0.5-0.1-0.3-0.5 c1.2-3.4,2.4-6.7,3.6-10.1C4.9,20,6,16.8,7.1,13.7C8.1,11,9,8.3,9.9,5.7c0.1-0.3,0.2-0.4,0.5-0.4c2.2,0,4.4,0,6.6,0 c0.3,0,0.4,0.2,0.5,0.4c0.8,2.3,1.6,4.5,2.4,6.8c1.6,4.6,3.3,9.3,4.9,13.9C25.6,28.7,26.4,31,27.2,33.3z M16.2,22.1 c0-0.1-0.1-0.2-0.1-0.3c-0.7-2.2-1.5-4.4-2.2-6.6c0-0.1-0.1-0.3-0.2-0.5c-0.1,0.1-0.1,0.2-0.2,0.2c-0.7,2.4-1.5,4.8-2.2,7.1 c-0.1,0.3,0,0.4,0.3,0.4c1.4,0,2.9,0,4.3,0C16.3,22.5,16.4,22.4,16.2,22.1z"></path>
    </symbol>
    <symbol id="icon-spotify" viewBox="0 0 40 40">
        <path d="M26.9,26.3c0-0.4-0.2-0.8-0.6-1c-2.6-1.5-5.6-2.3-9-2.3c-1.8,0-3.7,0.2-5.8,0.7c-0.6,0.1-0.8,0.5-0.8,1 c0,0.3,0.1,0.5,0.3,0.7c0.2,0.2,0.4,0.3,0.7,0.3c0.1,0,0.3-0.1,0.7-0.2c1.8-0.4,3.4-0.5,4.9-0.5c3,0,5.7,0.7,8,2.1 c0.3,0.1,0.5,0.2,0.7,0.2c0.3,0,0.5-0.1,0.7-0.3C26.8,26.8,26.9,26.6,26.9,26.3L26.9,26.3z M28.8,22c0-0.5-0.2-0.9-0.7-1.2 c-3.2-1.9-6.8-2.8-11-2.8c-2,0-4.1,0.3-6.1,0.8c-0.6,0.2-1,0.6-1,1.3c0,0.3,0.1,0.6,0.4,0.9c0.2,0.2,0.5,0.4,0.9,0.4 c0.1,0,0.3-0.1,0.7-0.2c1.6-0.4,3.3-0.7,5-0.7c3.7,0,7,0.8,9.8,2.5c0.3,0.2,0.6,0.3,0.8,0.3c0.3,0,0.6-0.1,0.9-0.4 C28.7,22.6,28.8,22.3,28.8,22L28.8,22z M31,17c0-0.6-0.3-1.1-0.8-1.4c-1.7-1-3.6-1.7-5.9-2.2c-2.2-0.5-4.5-0.8-6.9-0.8 c-2.7,0-5.2,0.3-7.3,0.9c-0.3,0.1-0.6,0.3-0.8,0.5c-0.2,0.2-0.3,0.6-0.3,1c0,0.4,0.1,0.8,0.4,1c0.3,0.3,0.6,0.4,1,0.4 c0.1,0,0.4-0.1,0.8-0.2c1.8-0.5,3.8-0.7,6.2-0.7c2.1,0,4.2,0.2,6.2,0.7c2,0.5,3.7,1.1,5.1,1.9c0.3,0.2,0.5,0.2,0.8,0.2 c0.4,0,0.7-0.1,1-0.4C30.8,17.8,31,17.4,31,17L31,17z M35.1,20c0,2.8-0.7,5.4-2.1,7.7c-1.4,2.4-3.3,4.2-5.6,5.6 c-2.4,1.4-4.9,2.1-7.7,2.1c-2.8,0-5.4-0.7-7.7-2.1c-2.4-1.4-4.2-3.3-5.6-5.6S4.2,22.8,4.2,20s0.7-5.4,2.1-7.7S9.5,8,11.9,6.6 s4.9-2.1,7.7-2.1c2.8,0,5.4,0.7,7.7,2.1s4.2,3.3,5.6,5.6C34.4,14.6,35.1,17.2,35.1,20z"></path>
    </symbol>
    <symbol id="icon-steam" viewBox="0 0 40 40">
        <path d="M32.3,14.4c0,1.2-0.4,2.2-1.3,3.1s-1.9,1.3-3.1,1.3s-2.2-0.4-3.1-1.3c-0.9-0.9-1.3-1.9-1.3-3.1s0.4-2.2,1.3-3.1 c0.9-0.9,1.9-1.3,3.1-1.3s2.2,0.4,3.1,1.3S32.3,13.2,32.3,14.4z M18.5,27.6c0-1.2-0.4-2.3-1.3-3.2c-0.9-0.9-1.9-1.3-3.2-1.3 c-0.3,0-0.6,0-1,0.1l1.9,0.8c0.9,0.4,1.6,1,2,1.9c0.4,0.9,0.4,1.8,0,2.7c-0.4,0.9-1,1.6-1.9,1.9c-0.9,0.4-1.8,0.4-2.7,0 c-0.3-0.1-0.6-0.2-1.1-0.4c-0.5-0.2-0.9-0.3-1.1-0.4c0.4,0.7,0.9,1.3,1.6,1.7c0.7,0.4,1.5,0.7,2.3,0.7c1.2,0,2.3-0.4,3.2-1.3 C18.1,29.9,18.5,28.9,18.5,27.6L18.5,27.6z M33.3,14.4c0-1.5-0.5-2.8-1.6-3.8C30.7,9.5,29.4,9,27.9,9c-1.5,0-2.8,0.5-3.9,1.6 c-1.1,1.1-1.6,2.3-1.6,3.8c0,1.5,0.5,2.8,1.6,3.9c1.1,1.1,2.4,1.6,3.9,1.6c1.5,0,2.8-0.5,3.8-1.6C32.8,17.2,33.3,15.9,33.3,14.4z M36,14.4c0,2.2-0.8,4.2-2.4,5.7c-1.6,1.6-3.5,2.4-5.7,2.4l-7.8,5.7c-0.1,1.5-0.8,2.8-1.9,3.9s-2.5,1.6-4.1,1.6 c-1.4,0-2.7-0.5-3.8-1.4s-1.8-2-2.1-3.4L4,27.3v-7.7l6.9,2.8c0.9-0.6,2-0.9,3.1-0.9c0.2,0,0.4,0,0.6,0l5.1-7.3 c0-2.2,0.8-4.1,2.4-5.7s3.5-2.4,5.7-2.4c2.2,0,4.2,0.8,5.7,2.4C35.2,10.3,36,12.2,36,14.4z"></path>
    </symbol>
    <symbol id="icon-wishlist" viewBox="0 0 40 40">
        <path d="M13,32.1c-0.5-0.5-1.1-0.7-1.9-0.7s-1.4,0.2-1.9,0.7c-0.5,0.5-0.7,1.1-0.7,1.9c0,0.7,0.2,1.4,0.7,1.9 c0.5,0.5,1.1,0.7,1.9,0.7s1.4-0.2,1.9-0.7c0.5-0.5,0.7-1.1,0.7-1.9S13.5,32.6,13,32.1z M31.2,32.1c-0.5-0.5-1-0.7-1.8-0.7 s-1.4,0.2-1.9,0.7c-0.5,0.5-0.7,1.1-0.7,1.9c0,0.7,0.2,1.4,0.7,1.9s1.1,0.7,1.9,0.7s1.4-0.2,1.9-0.7c0.5-0.5,0.7-1.1,0.7-1.9 S31.7,32.6,31.2,32.1z M34.2,9.8c-0.2-0.2-0.5-0.4-0.9-0.4H8.9c0-0.1,0-0.3-0.1-0.5c0-0.3-0.1-0.5-0.1-0.6c0-0.1-0.1-0.3-0.2-0.5 c0-0.2-0.1-0.4-0.2-0.5C8.1,7.1,8,7,7.8,6.9C7.6,6.8,7.4,6.8,7.2,6.8H2c-0.3,0-0.6,0.1-0.9,0.4C0.7,7.6,0.7,7.8,0.7,8.1 c0,0.3,0.1,0.6,0.4,0.9s0.5,0.4,0.9,0.4h4.2l3.5,17.8c0,0.1-0.1,0.3-0.3,0.6c-0.2,0.3-0.3,0.6-0.4,0.8c-0.1,0.2-0.2,0.4-0.3,0.7 c-0.1,0.3-0.2,0.5-0.2,0.6c0,0.3,0.1,0.6,0.4,0.9c0.2,0.2,0.5,0.4,0.9,0.4h20.9c0.3,0,0.6-0.1,0.9-0.4c0.2-0.2,0.4-0.5,0.4-0.9 c0-0.4-0.1-0.6-0.4-0.9c-0.2-0.2-0.5-0.4-0.9-0.4H12.1c0.3-0.6,0.5-1,0.5-1.4c0-0.1-0.1-0.6-0.3-1.5l21.3-2.5c0.3,0,0.6-0.2,0.8-0.4 c0.2-0.2,0.3-0.5,0.3-0.8V10.7C34.7,10.4,34.5,10.1,34.2,9.8z"></path>
    </symbol>
    <symbol id="icon-roblox" viewBox="0 0 40 40">
        <path d="M29.8,37L3,29.8L10.2,3l13.4,3.6L37,10.2L29.8,37z M24.7,17.3l-7.5-2.1l-2,7.5l7.5,2.1L24.7,17.3z"></path>
    </symbol>
    <symbol id="icon-back" viewBox="0 0 40 40">
        <path d="M0.5,21.2L15.6,30c0.3,0.3,0.9,0.5,1.5,0.5c0.6,0,1.5-0.6,1.5-1.2v-8.2c0.1,0,0.2,0.1,0.3,0.1L34,30 c0.3,0.3,0.9,0.5,1.5,0.5s1.5-0.6,1.5-1.2V10.7c0-0.6-0.9-1.2-1.5-1.2S34.3,9.6,34,10l-15.1,8.8c-0.1,0.1-0.2,0.1-0.3,0.2v-8.2 c0-0.6-0.9-1.2-1.5-1.2c-0.6,0-1.2,0.1-1.5,0.5L0.5,18.8C0.1,19.1,0,19.5,0,20C0,20.5,0.1,20.9,0.5,21.2z"></path>
    </symbol>
    <symbol id="icon-pause" viewBox="0 0 40 40">
        <path d="M30.4,34.3H25c-0.8,0-1.6-0.7-1.6-1.6V7.3c0-0.9,0.7-1.6,1.5-1.6h5.4c0.8,0,1.6,0.7,1.6,1.6v25.4 C32,33.6,31.2,34.3,30.4,34.3z M15.1,34.3H9.6c-0.8,0-1.6-0.7-1.6-1.6V7.3c0.1-0.9,0.8-1.6,1.6-1.6H15c0.8,0,1.6,0.7,1.6,1.6v25.4 C16.6,33.6,15.9,34.3,15.1,34.3z"></path>
    </symbol>
    <symbol id="icon-forward" viewBox="0 0 40 40">
        <path d="M40,20c0-0.5-0.1-0.9-0.5-1.2L24.4,10c-0.3-0.3-0.9-0.5-1.5-0.5c-0.6,0-1.5,0.6-1.5,1.2v8.2 c-0.1-0.1-0.2-0.1-0.3-0.2L6,10C5.7,9.6,5.1,9.5,4.5,9.5S3,10.1,3,10.7v18.6c0,0.6,0.9,1.2,1.5,1.2S5.7,30.4,6,30l15.1-8.8 c0.1,0,0.2-0.1,0.3-0.1v8.2c0,0.6,0.9,1.2,1.5,1.2c0.6,0,1.2-0.1,1.5-0.5l15.1-8.8C39.9,20.9,40,20.5,40,20z"></path>
    </symbol id="icon-resume">
    <symbol id="icon-play" viewBox="0 0 40 40">
        <path d="M8.4,33.5c0,0.9,1.4,1.8,2.2,1.8s1.7-0.2,2.2-0.7l22-12.8c0.5-0.5,0.7-1.1,0.7-1.8c0-0.7-0.2-1.3-0.7-1.8l-22-12.8 c-0.5-0.5-1.3-0.7-2.2-0.7S8.5,5.6,8.4,6.5V33.5z"></path>
    </symbol>
</svg>