<svg xmlns="http://www.w3.org/2000/svg" version="1.1" xmlns:xlink="http://www.w3.org/1999/xlink" viewBox="0 0 40 40" display="none" width="0" height="0">
    <symbol id="icon-roblox" viewBox="0 0 40 40">
        <path d="M29.8,37L3,29.8L10.2,3l13.4,3.6L37,10.2L29.8,37z M24.7,17.3l-7.5-2.1l-2,7.5l7.5,2.1L24.7,17.3z"></path>
    </symbol>
    <symbol id="icon-back" viewBox="0 0 40 40">
        <path d="M0.5,21.2L15.6,30c0.3,0.3,0.9,0.5,1.5,0.5c0.6,0,1.5-0.6,1.5-1.2v-8.2c0.1,0,0.2,0.1,0.3,0.1L34,30 c0.3,0.3,0.9,0.5,1.5,0.5s1.5-0.6,1.5-1.2V10.7c0-0.6-0.9-1.2-1.5-1.2S34.3,9.6,34,10l-15.1,8.8c-0.1,0.1-0.2,0.1-0.3,0.2v-8.2 c0-0.6-0.9-1.2-1.5-1.2c-0.6,0-1.2,0.1-1.5,0.5L0.5,18.8C0.1,19.1,0,19.5,0,20C0,20.5,0.1,20.9,0.5,21.2z"></path>
    </symbol>
    <symbol id="icon-pause" viewBox="0 0 40 40">
        <path d="M30.4,34.3H25c-0.8,0-1.6-0.7-1.6-1.6V7.3c0-0.9,0.7-1.6,1.5-1.6h5.4c0.8,0,1.6,0.7,1.6,1.6v25.4 C32,33.6,31.2,34.3,30.4,34.3z M15.1,34.3H9.6c-0.8,0-1.6-0.7-1.6-1.6V7.3c0.1-0.9,0.8-1.6,1.6-1.6H15c0.8,0,1.6,0.7,1.6,1.6v25.4 C16.6,33.6,15.9,34.3,15.1,34.3z"></path>
    </symbol>
    <symbol id="icon-forward" viewBox="0 0 40 40">
        <path d="M40,20c0-0.5-0.1-0.9-0.5-1.2L24.4,10c-0.3-0.3-0.9-0.5-1.5-0.5c-0.6,0-1.5,0.6-1.5,1.2v8.2 c-0.1-0.1-0.2-0.1-0.3-0.2L6,10C5.7,9.6,5.1,9.5,4.5,9.5S3,10.1,3,10.7v18.6c0,0.6,0.9,1.2,1.5,1.2S5.7,30.4,6,30l15.1-8.8 c0.1,0,0.2-0.1,0.3-0.1v8.2c0,0.6,0.9,1.2,1.5,1.2c0.6,0,1.2-0.1,1.5-0.5l15.1-8.8C39.9,20.9,40,20.5,40,20z"></path>
    </symbol>
    <symbol id="icon-resume" viewBox="0 0 40 40">
        <path d="M7.2,34.3h25.4c0.8,0,1.6-0.7,1.6-1.6V7.3c0-0.9-0.7-1.6-1.5-1.6H7.2c-0.8,0-1.5,0.7-1.5,1.6v25.4 C5.7,33.6,6.4,34.3,7.2,34.3z"></path>
    </symbol>
    <symbol id="icon-shuffle" viewBox="0 0 20 18">
        <path d="M13.151.922a.75.75 0 1 0-1.06 1.06L13.109 3H11.16a3.75 3.75 0 0 0-2.873 1.34l-6.173 7.356A2.25 2.25 0 0 1 .39 12.5H0V14h.391a3.75 3.75 0 0 0 2.873-1.34l6.173-7.356a2.25 2.25 0 0 1 1.724-.804h1.947l-1.017 1.018a.75.75 0 0 0 1.06 1.06L15.98 3.75zM.391 3.5H0V2h.391c1.109 0 2.16.49 2.873 1.34L4.89 5.277l-.979 1.167-1.796-2.14A2.25 2.25 0 0 0 .39 3.5z"></path>
        <path d="m7.5 10.723.98-1.167.957 1.14a2.25 2.25 0 0 0 1.724.804h1.947l-1.017-1.018a.75.75 0 1 1 1.06-1.06l2.829 2.828-2.829 2.828a.75.75 0 1 1-1.06-1.06L13.109 13H11.16a3.75 3.75 0 0 1-2.873-1.34l-.787-.938z"></path>
    </symbol>
</svg>